<svg viewBox="0 0 400 320" xmlns="http://www.w3.org/2000/svg">
<g transform="translate(200,130)">
  <rect fill="#1a1a1a" x="-52" y="8" width="62" height="56" rx="2"/>
  <rect fill="#1a1a1a" x="12" y="-12" width="44" height="76" rx="2"/>
  <rect fill="#1a1a1a" x="20" y="-50" width="13" height="42" rx="1.5"/>
  <rect fill="#1a1a1a" x="39" y="-32" width="10" height="24" rx="1.5"/>
  <rect fill="#f5f5f5" x="-43" y="18" width="10" height="9" rx="1"/>
  <rect fill="#f5f5f5" x="-28" y="18" width="10" height="9" rx="1"/>
  <rect fill="#f5f5f5" x="-43" y="34" width="10" height="9" rx="1"/>
  <rect fill="#f5f5f5" x="-28" y="34" width="10" height="9" rx="1"/>
  <rect fill="#f5f5f5" x="20" y="0" width="10" height="10" rx="1"/>
  <rect fill="#f5f5f5" x="38" y="0" width="10" height="10" rx="1"/>
  <rect fill="#f5f5f5" x="20" y="18" width="10" height="10" rx="1"/>
  <rect fill="#f5f5f5" x="38" y="18" width="10" height="10" rx="1"/>
  <rect fill="#1a1a1a" x="-58" y="64" width="120" height="3" rx="1.5"/>
  <line stroke="#F5A623" fill="none" x1="26" y1="-54" x2="26" y2="-98" stroke-width="3.5" stroke-linecap="round"/>
  <polygon fill="#F5A623" points="26,-98 17,-82 35,-82"/>
  <line stroke="#F5A623" fill="none" x1="14" y1="-56" x2="5" y2="-80" stroke-width="1.8" stroke-linecap="round"/>
  <polygon fill="#F5A623" points="5,-80 0,-70 10,-70"/>
  <line stroke="#F5A623" fill="none" x1="40" y1="-46" x2="48" y2="-72" stroke-width="1.8" stroke-linecap="round"/>
  <polygon fill="#F5A623" points="48,-72 43,-62 53,-62"/>
  <circle fill="#F5A623" cx="26" cy="-108" r="3"/>
  <circle fill="#F5A623" cx="0" cy="-86" r="1.8"/>
  <circle fill="#F5A623" cx="53" cy="-78" r="1.8"/>
  <circle fill="#F5A623" cx="13" cy="-96" r="1.5"/>
  <circle fill="#F5A623" cx="42" cy="-88" r="1.3"/>
</g>
<text fill="#1a1a1a" x="200" y="255" text-anchor="middle" font-family="system-ui,-apple-system,sans-serif" font-size="30" font-weight="500" letter-spacing="7">BEASTMODE</text>
<text fill="#999" x="200" y="280" text-anchor="middle" font-family="system-ui,-apple-system,sans-serif" font-size="11" letter-spacing="4">DARK FACTORY</text>
</svg>
