<svg viewBox="0 0 400 320" xmlns="http://www.w3.org/2000/svg">
<style>
  @media (prefers-color-scheme: dark) {
    .body { fill: #f0f0f0; }
    .win { fill: #141414; }
    .amber { fill: #F5A623; }
    .amber-s { stroke: #F5A623; fill: none; }
    .wm { fill: #f0f0f0; }
    .sub { fill: #666; }
  }
  @media (prefers-color-scheme: light) {
    .body { fill: #1a1a1a; }
    .win { fill: #f5f5f5; }
    .amber { fill: #F5A623; }
    .amber-s { stroke: #F5A623; fill: none; }
    .wm { fill: #1a1a1a; }
    .sub { fill: #999; }
  }
</style>
<g transform="translate(200,130)">
  <rect class="body" x="-52" y="8" width="62" height="56" rx="2"/>
  <rect class="body" x="12" y="-12" width="44" height="76" rx="2"/>
  <rect class="body" x="20" y="-50" width="13" height="42" rx="1.5"/>
  <rect class="body" x="39" y="-32" width="10" height="24" rx="1.5"/>
  <rect class="win" x="-43" y="18" width="10" height="9" rx="1"/>
  <rect class="win" x="-28" y="18" width="10" height="9" rx="1"/>
  <rect class="win" x="-43" y="34" width="10" height="9" rx="1"/>
  <rect class="win" x="-28" y="34" width="10" height="9" rx="1"/>
  <rect class="win" x="20" y="0" width="10" height="10" rx="1"/>
  <rect class="win" x="38" y="0" width="10" height="10" rx="1"/>
  <rect class="win" x="20" y="18" width="10" height="10" rx="1"/>
  <rect class="win" x="38" y="18" width="10" height="10" rx="1"/>
  <rect class="body" x="-58" y="64" width="120" height="3" rx="1.5"/>
  <line class="amber-s" x1="26" y1="-54" x2="26" y2="-98" stroke-width="3.5" stroke-linecap="round"/>
  <polygon class="amber" points="26,-98 17,-82 35,-82"/>
  <line class="amber-s" x1="14" y1="-56" x2="5" y2="-80" stroke-width="1.8" stroke-linecap="round"/>
  <polygon class="amber" points="5,-80 0,-70 10,-70"/>
  <line class="amber-s" x1="40" y1="-46" x2="48" y2="-72" stroke-width="1.8" stroke-linecap="round"/>
  <polygon class="amber" points="48,-72 43,-62 53,-62"/>
  <circle class="amber" cx="26" cy="-108" r="3"/>
  <circle class="amber" cx="0" cy="-86" r="1.8"/>
  <circle class="amber" cx="53" cy="-78" r="1.8"/>
  <circle class="amber" cx="13" cy="-96" r="1.5"/>
  <circle class="amber" cx="42" cy="-88" r="1.3"/>
</g>
<text class="wm" x="200" y="255" text-anchor="middle" font-family="system-ui,-apple-system,sans-serif" font-size="30" font-weight="500" letter-spacing="7">BEASTMODE</text>
<text class="sub" x="200" y="280" text-anchor="middle" font-family="system-ui,-apple-system,sans-serif" font-size="11" letter-spacing="4">DARK FACTORY</text>
</svg>
